<?xml version="1.0" encoding="utf-8"?>
<!-- Generator: Adobe Illustrator 19.1.0, SVG Export Plug-In . SVG Version: 6.00 Build 0)  -->
<svg version="1.1" id="Layer_1" xmlns="http://www.w3.org/2000/svg" xmlns:xlink="http://www.w3.org/1999/xlink" x="0px" y="0px"
	 viewBox="-415 269 128 24.1" style="enable-background:new -415 269 128 24.1;" xml:space="preserve">
<style type="text/css">
	.st0{clip-path:url(#SVGID_2_);}
	.st1{fill:#111111;}
</style>
<g>
	<defs>
		<rect id="SVGID_1_" x="-415" y="269" width="128" height="24"/>
	</defs>
	<clipPath id="SVGID_2_">
		<use xlink:href="#SVGID_1_"  style="overflow:visible;"/>
	</clipPath>
	<g class="st0">
		<path class="st1" d="M-413.4,291.1c-1.1-1.7-1.7-3.7-1.6-5.7v-8.5c-0.1-2.1,0.4-4.1,1.5-5.8c1.1-1.3,2.8-1.9,5.3-1.9
			s4.1,0.6,5.1,1.7c1.1,1.4,1.6,3.2,1.5,5v2.1h-4.9v-2.4c0-0.7-0.1-1.4-0.3-2.1c-0.1-0.3-0.3-0.5-0.6-0.6c-0.2-0.1-0.5-0.2-0.8-0.2
			c-0.7,0-1.2,0.2-1.4,0.7c-0.2,0.7-0.3,1.5-0.3,2.3v11c-0.1,0.7,0.1,1.5,0.4,2.2c0.2,0.5,0.7,0.7,1.4,0.7c0.7,0,1.1-0.2,1.3-0.7
			c0.2-0.7,0.3-1.4,0.3-2.2v-2.5h4.9v2.1c0.1,1.8-0.4,3.7-1.5,5.1c-1,1.2-2.7,1.8-5.1,1.8C-410.6,293-412.4,292.4-413.4,291.1z"/>
		<path class="st1" d="M-395.7,269.3h5.7l4.2,23.4h-4.6l-0.8-4.9h-3.3l-0.8,4.9h-4.7L-395.7,269.3z M-391.6,284.7l-1.2-9.1l-1.2,9.1
			H-391.6z"/>
		<path class="st1" d="M-382.2,273.2h-3.4v-3.9h11.9v3.8h-3.4v19.6h-5.1V273.2z"/>
		<path class="st1" d="M-364.6,269.3h8.8v2.5h-5.7v7.7h4.6v2.4h-4.6v8.6h5.7v2.4h-8.9v-23.5H-364.6z"/>
		<path class="st1" d="M-353.2,269.3h2.2l6.5,15.5v-15.5h2.6v23.4h-2l-6.6-16v16h-2.7V269.3z"/>
		<path class="st1" d="M-338.9,269.3h8.8v2.5h-5.7v7.7h4.6v2.4h-4.6v8.6h5.7v2.4h-8.8V269.3z"/>
		<path class="st1" d="M-327.5,269.3h4.6c1.8-0.1,3.6,0.4,5.1,1.4c1.1,0.9,1.6,2.6,1.6,4.7c0,3-0.9,4.8-2.8,5.4l3.2,11.7h-3.1l-3-11
			h-2.5v11h-3.2v-23.3H-327.5z M-323.1,279.4c1,0.1,2.1-0.2,2.9-0.8c0.6-0.5,0.9-1.5,0.9-3.1c0-0.8-0.1-1.5-0.3-2.3
			c-0.2-0.5-0.6-1-1.1-1.2c-0.7-0.3-1.4-0.5-2.2-0.4h-1.4v7.7h1.2V279.4z"/>
		<path class="st1" d="M-312.1,290.9c-1-1.8-1.5-3.9-1.4-5.9v-7.8c0-1.5,0.1-3,0.5-4.4c0.3-1.1,1-2,1.9-2.7c1.1-0.7,2.4-1,3.7-0.9
			c2.1,0,3.6,0.5,4.5,1.6c1,1.5,1.5,3.3,1.4,5.1v0.8h-3v-0.7c0-0.9-0.1-1.7-0.2-2.6c-0.1-0.5-0.4-1-0.8-1.3
			c-0.6-0.4-1.2-0.6-1.9-0.5c-0.7,0-1.4,0.2-2,0.6c-0.2,0.2-0.4,0.5-0.6,0.7c-0.1,0.3-0.2,0.6-0.2,0.9c-0.1,0.9-0.2,1.8-0.2,2.8v8.7
			c-0.1,1.3,0.1,2.7,0.6,3.9c0.4,0.8,1.2,1.1,2.4,1.1c0.5,0.1,1,0,1.4-0.2s0.8-0.6,1-1c0.5-1.3,0.8-2.7,0.7-4.1v-1.6h-2.9v-2.4h5.8
			v11.6h-2l-0.3-2.7c-0.3,0.9-0.8,1.7-1.6,2.2c-0.7,0.5-1.6,0.8-2.6,0.8c-0.8,0-1.7-0.1-2.4-0.5C-311,292.2-311.6,291.6-312.1,290.9
			z"/>
		<path class="st1" d="M-295,284.5l-4.9-15.1h3l3.5,11.3l3.4-11.3h3l-4.9,15.1v8.2h-3v-8.2H-295z"/>
	</g>
</g>
</svg>
