<?xml version="1.0" encoding="utf-8"?>
<svg version="1.1" id="Layer_1" xmlns="http://www.w3.org/2000/svg" xmlns:xlink="http://www.w3.org/1999/xlink" x="0px" y="0px"
	 viewBox="-415 269.5 127.8 22.9" style="enable-background:new -415 269.5 127.8 22.9;" xml:space="preserve">
<style type="text/css">
	.st0{fill:#111111;}
</style>
<path class="st0" d="M-413.4,290.6c-1.1-1.6-1.6-3.5-1.6-5.4V277c0.1-1.9,0.4-3.9,1.5-5.6c1.1-1.3,2.8-1.9,5.3-1.9s4,0.6,5.1,1.6
	c1.1,1.4,1.4,2.9,1.5,4.8v1.9h-4.9v-2.3c0-0.6,0-1.3-0.3-1.9c-0.1-0.3-0.4-0.5-0.6-0.6c-0.3-0.1-0.6-0.2-0.8-0.2
	c-0.8,0-1.1,0.3-1.4,0.7c-0.3,0.6-0.3,1.4-0.3,2.1v10.4c0,0.8,0,1.4,0.3,2c0.3,0.5,0.8,0.6,1.4,0.6c0.6,0,1.1-0.3,1.3-0.6
	c0.3-0.6,0.2-1.4,0.3-2v-2.3h4.9v1.9c0,1.8-0.4,3.4-1.5,4.8c-1,1.1-2.7,1.8-5.1,1.8C-410.5,292.3-412.3,291.8-413.4,290.6z"/>
<path class="st0" d="M-395.7,269.9h5.7l4.2,22.1h-4.5l-0.8-4.7h-3.3l-0.8,4.7h-4.7L-395.7,269.9z M-391.6,284.6l-1.1-8.6l-1.1,8.6
	H-391.6z"/>
<path class="st0" d="M-382.4,273.6h-3.4v-3.7h11.9v3.5h-3.4V292h-5.1L-382.4,273.6L-382.4,273.6z"/>
<path class="st0" d="M-364.7,269.8h8.8v2.3h-5.7v7.3h4.5v2.3h-4.5v8.2h5.7v2.3h-8.8V269.8L-364.7,269.8z"/>
<path class="st0" d="M-353.3,269.9h2.1l6.4,14.7v-14.7h2.7V292h-2l-6.6-15.2V292h-2.7V269.9z"/>
<path class="st0" d="M-339,269.8h8.8v2.3h-5.7v7.3h4.5v2.3h-4.5v8.2h5.7v2.3h-8.8V269.8z"/>
<path class="st0" d="M-327.9,269.8l4.7,0c2.7,0,3.9,0.4,5.1,1.5c1.1,0.9,1.6,2.5,1.6,4.6c0,2.8-0.9,4.5-2.8,5.2l3.2,11.1h-3l-3-10.4
	h-2.5v10.4h-3.2L-327.9,269.8z M-323.5,279.6c0.9,0,1.6-0.2,2.4-0.5c0.5-0.2,0.9-0.6,1.1-1c0.2-0.5,0.3-1.3,0.4-2.1
	c0-0.8,0-1.4-0.3-2.1c-0.1-0.7-0.9-1.1-1.1-1.2c-0.6-0.2-1.2-0.3-2.2-0.3h-1.6v7.3H-323.5L-323.5,279.6z"/>
<path class="st0" d="M-312.5,290.3c-1-1.7-1.4-3.7-1.4-5.7v-7.4c0-1.4,0.1-2.8,0.5-4.2c0.4-1,1-1.9,1.9-2.6c1.1-0.6,2.4-0.9,3.7-0.9
	c2.2,0,3.6,0.5,4.6,1.5c1.1,1.4,1.5,3.2,1.4,4.9v0.8h-3.1V276c0-0.8-0.1-1.7-0.3-2.4c-0.1-0.5-0.4-1-0.8-1.3
	c-0.5-0.4-1.3-0.5-1.9-0.5c-0.8,0-1.4,0.1-2,0.6c-0.3,0.3-0.3,0.4-0.5,0.8c-0.1,0.3-0.2,0.5-0.3,0.9c-0.1,0.9-0.3,1.8-0.3,2.7v8.3
	c0,1.3,0.1,2.6,0.6,3.7c0.4,0.8,1.1,1,2.4,1c0.5,0,1,0,1.4-0.3c0.4-0.2,0.8-0.5,1-0.9c0.7-1.2,0.8-2.6,0.8-4v-1.5h-2.9v-2.3h5.9V292
	h-2l-0.3-2.6c-0.3,0.9-0.8,1.7-1.5,2.2c-0.8,0.5-1.7,0.8-2.6,0.8s-1.7-0.1-2.4-0.5C-311.3,291.5-312,291-312.5,290.3z"/>
<path class="st0" d="M-295.3,284.2l-4.9-14.3h3l3.5,10.7l3.4-10.7h3l-4.9,14.3v7.8h-3L-295.3,284.2L-295.3,284.2z"/>
</svg>
