<?xml version="1.0" encoding="utf-8"?><svg version="1.1" id="Layer_1" xmlns="http://www.w3.org/2000/svg" x="0" y="0" viewBox="-378 251 202 59" xml:space="preserve"><style>.st0{fill:#fdc305}.st1{fill:#fff}.st2{fill:#f06351}.st4{fill:#111}</style><path class="st0" d="M-312.8 254.5l-8.5 9.4-1.2-2 8.1-10.9 1.6 3.5zM-315.3 268.1l5.5-4.1-.8-3.7-5.4 4.8.7 3zM-318.1 300l6.1 3.2 3-2.3-6.7-2.7-2.4 1.8zM-376.1 256.9l3.1-3.3 9.3 8.9-1.2 2.3-11.2-7.9zM-370.6 267.1l-4.7-3.1-2.4 3.8 5.1 2.4 2-3.1zM-364.1 303.1l-4.6 3.3 2.8 3.6 4-4-2.2-2.9z"/><ellipse class="st1" cx="-341.9" cy="285.4" rx="25" ry="24.6"/><path class="st0" d="M-318.1 274.8c-1.7-4.1-4.5-7.7-8.1-10.4-3.6-2.7-7.8-4.4-12.2-5-4.4-.6-9 0-13.1 1.7s-7.8 4.4-10.5 7.9-4.5 7.7-5.1 12.1c-.6 4.4-.1 8.9 1.6 13 1.7 4.1 4.4 7.7 7.9 10.5 3.5 2.7 7.7 4.5 12.1 5.2-.6-2.1-1.2-4.4-1.7-6.8 1.5 1 3.1 1.8 4.8 2.5 0 0 .1 2.1.3 4.5 1.8 0 3.6-.1 5.3-.5v-.8c.3-1.9 1.1-5.2 1.3-7.4 1.2-1.1 2.1-2.3 2.9-3.7l-.1.4c-.6 4.2-1.7 8.7-2.4 10-.2.4-.5.8-.8 1.1 3.6-.8 7-2.5 9.9-4.7 2.9-2.3 5.3-5.1 7-8.4 1.7-3.3 2.7-6.9 2.8-10.6.2-3.5-.5-7.2-1.9-10.6zm-1.5 3.8c-.4.4-1.4.7-1.5-.6-.1-1.3-.2-2.2-.2-2.2s-1.9-3.4-2.7-3.4c-.7 0-5.8 3.4-7.2 5-1.2 1.3-1.4 1.2-1.4 3.4 0 1.7.2 8.1.1 13l-8.2 2.2c-2.6.7-5.2 1.3-7.8 1.7l-1-5.8h-.1l-2.6-13.1s-3.8-1.4-5.2-1.8c-.7-.3-1.4-.4-2.1-.3-.7.1-1.4.4-1.9.9s-1 1.1-1.3 1.7c-.3.7-.5 1.4-.4 2.1.2.5.4.9.5 1.4 0 .5-1.2.4-2 .4s-.9-1.4-.3-3.1c.5-1.3 1.1-2.5 1.8-3.7.5-1.1 1.2-2 2.1-2.9 0 0 .1-.3 1.3-.2 1.1.1 7.3.4 7.3.4v-2.3c6.7-.9 13.5-1.4 20.2-1.3v1.8c2.6-1.2 5.3-1.8 8.1-2 .2 0 .3 0 .4.1l.3.3c.3.4 2.4 3 2.7 3.3.7 1 1.3 1.9 1.8 3 0 .8-.3 1.4-.7 2z"/><path class="st2" d="M-321.5 272.5c.5.6.9 1.1 1 1.3.7 1 1.3 1.9 1.8 3-.2.6-.5 1.2-.9 1.8-.4.4-1.4.7-1.5-.6s-.2-2.1-.2-2.1-1.9-3.4-2.7-3.4c-.7 0-5.8 3.4-7.2 5-1.2 1.3-1.4 1.2-1.4 3.4 0 1.5.2 6.6.1 11.1 1.8.2 4.5.7 5.3 1.9 0 0-.3-7.1 7.8-3.4 0 0 .3-9.7 11.5-7.2-3.7-4.6-8.4-8.2-13.6-10.8zM-332.1 270.2c0-5.5-.4-11-1.4-16.4 0 0-.1-1.3-.9-.2-.6 1.3-1 2.6-1.2 4-4.3-.3-8.6-.2-12.8.3-.8-2.7-2.2-4-2.9-3.6-.7.3-.8 3.3-.8 3.3l-.3 14c6.8-1 13.6-1.4 20.3-1.4z"/><path d="M-332.6 297.7c.1-1.1.2-2.5.2-4l-8.1 2.2c-2.6.7-5.2 1.3-7.8 1.8l1.1 5c0 .1 0 .2.1.3 1.5 1 3.1 1.8 4.8 2.5 2.4-1.1 4.7-2.5 6.9-4.1v.1c1-1.2 2-2.4 2.8-3.8z" fill="#e55645"/><path d="M-346 267.1c0-.1 1 .7 1.4.9.4.2.6.4.6.6 0 .2-.3.3-.6.3-.4 0-.9-.1-1-.3-.1-.1.6 0 .9 0h.3c-.6-.4-1.1-.9-1.6-1.5zM-338.5 267.2s-1 1.3-1.1 1.3c-.1.1-.2.3.2.3l1.2-.3c.1-.1.1-.2-.1-.2s-.7 0-1 .1l.8-1.2c.1 0 .1-.1 0 0zM-341.6 273.3c.5-.2.8-.6 1.1-1 .3-.7 0-.9-.4-1-.6-.1-1.2 0-1.8.3-.4.4-.3.7 0 1 .3.3.7.5 1.1.7z"/><path class="st2" d="M-342 274.5c-.1.2-.3.4-.5.6-.3.2-.6.4-1 .4-.6.1-1.1-.1-1.5-.4-.2-.1-.4-.3-.5-.4-.1-.1-.2-.2-.4-.2 0 0 .8 4.1 2.6 4.7 1.8.7 2.2-.8 2.2-1.1.1-1.1-.2-2.2-.8-3.2 0-.5 0-.3-.1-.4z"/><path d="M-343.7 275.6c-.5-.1-.9-.2-1.3-.5-.4-.2-.8-.6-1-.9v-.1-.1h.2c.2.3.6.6.9.9.4.2.8.4 1.2.4.3 0 .7-.1.9-.3.3-.2.5-.4.7-.7l.1-.2.1.2s.4.8 1 .8 1.1-.4 1.6-1.3l.1-.1h.1l.1.1v.1c-.7 1-1.3 1.4-1.9 1.4-.2 0-.4-.1-.6-.2-.2-.1-.4-.3-.5-.5-.2.3-.4.5-.7.7s-.7.3-1 .3z"/><path class="st0" d="M-341.7 289c2.1 0 3.8-1.7 3.8-3.7 0-2.1-1.7-3.7-3.8-3.7s-3.8 1.7-3.8 3.7 1.7 3.7 3.8 3.7z"/><path class="st4" d="M-336.8 282.2l-3.1 1.3 1.1-5.6-7.5 9.7 3.1-1.3-1.1 5.6 7.5-9.7zm-7.4 3.8l4.2-5.4-.8 4 2-.8-4.2 5.4.8-4-2 .8zM-345.6 284.6c.6 0 1.1-.5 1.1-1.1 0-.6-.5-1.1-1.1-1.1-.6 0-1.1.5-1.1 1.1 0 .6.5 1.1 1.1 1.1zM-339 288.6c.4 0 .8-.4.8-.8s-.4-.8-.8-.8-.8.4-.8.8c0 .5.3.8.8.8zM-338.1 286.5c.2 0 .4-.2.4-.3 0-.2-.2-.3-.4-.3s-.4.2-.4.3c.1.1.2.3.4.3z"/><path class="st2" d="M-332.1 272c-1.8 1.6-3.5 3.3-5.1 5.2-1.6 1.8-3.4 3.4-5.3 4.9-.2-.5-1.6-1.5-1.6-1.5s-3.1-2.1-5.2-3.8c-1.1-.9-2.2-1.9-3.1-3l-2-.1c2.9 4.2 7.1 7.3 12 8.8.9-.1 3.3-1.9 5.1-3.3 2.1-1.8 4.1-3.8 6-5.9.5-.6.9-1.3 1.1-2-1.2.4-1.9.7-1.9.7zM-352.1 278.8s-3.8-1.4-5.2-1.8c-.7-.3-1.4-.4-2.1-.3-.7.1-1.4.4-1.9.9s-1 1.1-1.3 1.7c-.3.7-.5 1.4-.4 2.1.2.5.4.9.5 1.4.1.5-1.2.4-2 .4s-.9-1.4-.3-3.1c.5-1.3 1.1-2.5 1.8-3.7-5.5 2.8-15 9.3-15 9.3 2.7-.2 5.5-.1 8.2.2 5.3.5 5 4.6 5 4.6 1.8-.5 3.7-.9 5.6-1.1 2.1-.1 2.3 2.1 2.3 2.1l.5 3.8c.8-.9 1.7-1.6 2.7-2.3 1.2-1 2.8-1.4 4.4-1.3l-2.8-12.9z"/><path class="st1" d="M-292.3 292.7c-1-1.5-1.5-3.3-1.4-5.1v-7.4c-.1-1.8.4-3.7 1.4-5.2.9-1.2 2.5-1.8 4.8-1.8 2.2 0 3.8.5 4.6 1.6 1 1.3 1.4 2.9 1.3 4.5v1.7h-4.1v-2c0-.5 0-1-.1-1.5-.1-.4-.2-.7-.5-.9-.2-.1-.3-.2-.5-.3-.2-.1-.4-.1-.6-.1-.3 0-.6 0-.9.1-.3.1-.5.3-.6.6-.3.7-.4 1.4-.3 2.2v9.4c0 .7.1 1.5.4 2.2.1.2.4.4.6.6.3.1.5.2.8.1.3 0 .6 0 .8-.1s.5-.3.6-.6c.2-.7.3-1.4.3-2.2v-2h4.1v1.7c.1 1.6-.3 3.2-1.2 4.6-.9 1.1-2.4 1.6-4.6 1.6-2.3.1-4-.5-4.9-1.7zM-276.1 273.4h4.7l4 20.8h-3.9l-.7-4.6h-3.3l-.8 4.6h-4l4-20.8zm3.7 13.6l-1.3-8.4-1.3 8.4h2.6zM-264.3 276.5h-3.2v-3.1h10.7v3.1h-3.2v17.7h-4.3v-17.7zM-248.4 273.4h8.1v2.2h-5.2v6.9h4.2v2.1h-4.2v7.6h5.3v2.1h-8.2v-20.9zM-237.8 273.4h2l6 13.8v-13.8h2.4v20.8h-1.9l-6-14.2v14.2h-2.5v-20.8zM-224.2 273.4h8.1v2.2h-5.2v6.9h4.3v2.1h-4.2v7.6h5.2v2.1h-8.2v-20.9zM-213.6 273.4h4.2c1.7-.1 3.3.3 4.7 1.3 1 .9 1.5 2.3 1.5 4.2 0 2.6-.9 4.3-2.6 4.9l3 10.4h-2.8l-2.8-9.8h-2.3v9.8h-2.9v-20.8zm4 8.9c1 .1 1.9-.2 2.7-.8.3-.4.5-.8.7-1.3.1-.5.2-.9.1-1.4 0-.7-.1-1.3-.3-2-.1-.2-.2-.5-.4-.6-.2-.2-.4-.3-.6-.4-.6-.3-1.3-.4-2.1-.3h-1.3v6.9l1.2-.1zM-199.3 292.7c-1-1.6-1.4-3.5-1.3-5.3v-6.9c0-1.3.1-2.7.5-4 .3-1 .9-1.8 1.7-2.4 1-.6 2.2-.9 3.4-.8.8-.1 1.5 0 2.3.3s1.4.7 1.9 1.2c1 1.3 1.4 3 1.3 4.6v.8h-2.8v-.6c0-.8 0-1.5-.2-2.3-.1-.5-.4-.9-.8-1.2-.5-.3-1.1-.4-1.7-.4-.7-.1-1.3.1-1.8.6-.4.4-.7.9-.8 1.5-.1.8-.2 1.6-.2 2.5v7.7c-.1 1.2.1 2.4.6 3.4.3.3.6.6 1 .8.4.2.8.3 1.3.3.4 0 .9-.1 1.2-.3.4-.2.7-.5 1-.8.5-1.1.7-2.4.6-3.6V286h-2.7v-2.1h5.3v10.3h-1.8l-.3-2.4c-.2.8-.7 1.5-1.4 2s-1.5.7-2.3.7c-.8.1-1.6-.1-2.3-.4-.6-.3-1.2-.8-1.7-1.4zM-183.3 286.9l-4.5-13.5h2.7l3.2 10 3.2-10h2.8l-4.5 13.5v7.3h-2.8l-.1-7.3z"/></svg>