<svg width="34" height="38" viewBox="0 0 34 38" xmlns="http://www.w3.org/2000/svg" class="a"><style>.a{fill:none;}.b{clip-path:url(#clip0);}.c{fill:#FDC305;}.d{fill:#F06351;}.e{fill:black;}.f{fill:white;}</style><g class="b"><path d="M6.1 20.7V18.5C12.8 17.5 19.5 17.1 26.2 17.1 26.2 17.7 26.2 18.3 26.2 19 28.1 18.1 30.1 17.5 32.2 17.1 30.9 13.7 28.5 10.8 25.3 8.9 22.2 7 18.6 6.2 14.9 6.6 11.3 6.9 7.9 8.5 5.2 11 2.6 13.5 0.8 16.8 0.2 20.4L6.1 20.7Z" class="c"/><path d="M27.2 24.2C26.1 25.5 25.9 25.4 25.9 27.7 25.9 28.6 25.9 32.6 25.9 36.9 28.1 35.3 30 33.3 31.3 30.9 32.6 28.5 33.3 25.7 33.3 23 33.3 22 33.2 20.9 33 19.9 30.9 21.1 29 22.6 27.2 24.2Z" class="c"/><path d="M6.4 25.7C6.4 25.7 2.6 24.3 1.2 23.9 0.8 23.8 0.4 23.7 0 23.6 0.1 26.5 1 29.3 2.5 31.8 4 34.2 6.1 36.2 8.7 37.6L6.4 25.7Z" class="c"/><path d="M26.3 17.1C26.3 11.6 25.9 6.1 24.9 0.7 24.9 0.7 24.8-0.6 24 0.4 23.4 1.7 23 3 22.8 4.4 18.5 4.1 14.3 4.2 10 4.7 9.2 2 7.9 0.8 7.2 1 6.5 1.3 6.5 4.3 6.5 4.3L6.1 18.4C12.8 17.5 19.5 17.1 26.3 17.1Z" class="d"/><path d="M12.4 14C12.4 13.9 13.4 14.7 13.8 14.9 14.2 15.2 14.4 15.3 14.4 15.5 14.4 15.7 14.2 15.9 13.8 15.9 13.4 15.9 12.9 15.7 12.8 15.6H13.7 14C13.4 15.1 12.9 14.6 12.4 14Z" class="e"/><path d="M19.9 14.1L18.8 15.4C18.8 15.5 18.6 15.8 19 15.7 19.4 15.7 19.8 15.6 20.2 15.5 20.3 15.5 20.3 15.3 20.1 15.3 19.9 15.3 19.4 15.3 19.1 15.4L19.9 14.1C19.9 14.1 20 14 19.9 14.1Z" class="e"/><path d="M16.8 20.2C17.2 20 17.6 19.6 17.8 19.2 18.1 18.6 17.8 18.3 17.4 18.2 16.8 18.1 16.2 18.2 15.7 18.5 15.3 18.9 15.3 19.3 15.6 19.5 16 19.8 16.3 20 16.8 20.2Z" class="e"/><path d="M16.4 21.5C16.2 21.7 16.1 21.9 15.9 22.1 15.6 22.3 15.3 22.4 14.9 22.4 14.4 22.5 13.8 22.3 13.4 22 13.2 21.9 13 21.7 12.9 21.6 12.8 21.4 12.7 21.4 12.5 21.3 12.5 21.3 13.3 25.4 15.1 26.1 16.9 26.7 17.2 25.3 17.3 24.9 17.4 23.8 17.1 22.7 16.5 21.7 16.5 21.4 16.5 21.6 16.4 21.5Z" class="d"/><path d="M14.7 22.6C14.2 22.5 13.8 22.4 13.4 22.1 13 21.9 12.7 21.6 12.4 21.2 12.4 21.2 12.4 21.1 12.3 21.1 12.3 21.1 12.3 21.1 12.3 21.1 12.3 21.1 12.3 21 12.3 21 12.4 21 12.4 21 12.4 21 12.4 21 12.4 20.9 12.4 20.9 12.4 20.9 12.5 20.9 12.5 20.9 12.5 20.9 12.5 20.9 12.5 20.9 12.6 20.9 12.6 21 12.6 21 13.1 21.7 13.8 22.1 14.7 22.3 15 22.2 15.3 22.1 15.6 22 15.9 21.8 16.1 21.6 16.3 21.3L16.5 21.1 16.6 21.3C16.6 21.3 16.9 22.1 17.6 22.1 18.2 22.1 18.6 21.7 19.2 20.8 19.2 20.8 19.2 20.8 19.2 20.8 19.2 20.8 19.3 20.8 19.3 20.8 19.3 20.8 19.3 20.8 19.3 20.8 19.3 20.8 19.4 20.8 19.4 20.8 19.4 20.8 19.4 20.9 19.4 20.9 19.4 20.9 19.4 21 19.4 21 18.8 22 18.2 22.5 17.5 22.4 17.3 22.4 17.1 22.3 16.9 22.2 16.7 22 16.5 21.9 16.4 21.7 16.2 21.9 16 22.2 15.7 22.3 15.4 22.5 15 22.6 14.7 22.6Z" class="e"/><path d="M26.2 18.9C24.4 20.5 22.8 22.3 21.2 24.1 19.6 25.9 17.8 27.6 15.9 29 15.7 28.5 14.3 27.5 14.3 27.5 14.3 27.5 11.1 25.4 9.1 23.7 8 22.7 6.9 21.7 6 20.7L4 20.6C6.8 24.8 11.1 27.9 16 29.4 16.8 29.2 19.2 27.5 21 26.1 23.1 24.3 25.1 22.3 27 20.2 27.5 19.6 27.8 18.9 28.1 18.2 27 18.6 26.2 18.9 26.2 18.9Z" class="d"/></g><defs class="undefined"><clipPath class="undefined"><rect width="33.3" height="37.6" class="f"/></clipPath></defs></svg>
