<?xml version="1.0" encoding="utf-8"?>
<!-- Generator: Adobe Illustrator 19.1.0, SVG Export Plug-In . SVG Version: 6.00 Build 0)  -->
<svg version="1.1" id="Layer_1" xmlns="http://www.w3.org/2000/svg" xmlns:xlink="http://www.w3.org/1999/xlink" x="0px" y="0px"
	 viewBox="-384 262 191 37.6" style="enable-background:new -384 262 191 37.6;" xml:space="preserve">
<style type="text/css">
	.st0{clip-path:url(#SVGID_2_);}
	.st1{fill:#FDC305;}
	.st2{fill:#F06351;}
	.st3{clip-path:url(#SVGID_4_);}
	.st4{fill:#111111;}
</style>
<g>
	<defs>
		<rect id="SVGID_1_" x="-384" y="262" width="33.3" height="37.6"/>
	</defs>
	<clipPath id="SVGID_2_">
		<use xlink:href="#SVGID_1_"  style="overflow:visible;"/>
	</clipPath>
	<g class="st0">
		<path class="st1" d="M-377.9,282.7v-2.3c6.7-0.9,13.4-1.4,20.2-1.3c0,0.6,0,1.2-0.1,1.8c1.9-0.9,3.9-1.5,6-1.8
			c-1.3-3.4-3.7-6.3-6.8-8.2c-3.1-1.9-6.8-2.7-10.4-2.4c-3.6,0.4-7,1.9-9.7,4.4c-2.7,2.5-4.4,5.8-5,9.4L-377.9,282.7z"/>
		<path class="st1" d="M-356.8,286.2c-1.2,1.3-1.4,1.2-1.4,3.4c0,0.9,0,4.9,0,9.2c2.3-1.5,4.2-3.6,5.5-6c1.3-2.4,2-5.1,2-7.9
			c0-1-0.1-2.1-0.3-3.1C-353.1,283.1-355,284.6-356.8,286.2z"/>
		<path class="st1" d="M-377.6,287.7c0,0-3.8-1.4-5.2-1.8c-0.4-0.1-0.8-0.2-1.2-0.3c0.1,2.9,1,5.7,2.5,8.1c1.5,2.5,3.7,4.5,6.2,5.9
			L-377.6,287.7z"/>
		<path class="st2" d="M-357.7,279.1c0-5.5-0.4-11-1.4-16.5c0,0-0.1-1.3-0.9-0.2c-0.6,1.2-1,2.6-1.2,3.9c-4.3-0.3-8.5-0.2-12.8,0.3
			c-0.8-2.7-2.2-3.9-2.9-3.7c-0.7,0.3-0.7,3.3-0.7,3.3l-0.3,14.1C-371.2,279.5-364.5,279.1-357.7,279.1z"/>
		<path d="M-371.6,276c0-0.1,1,0.7,1.4,0.9c0.4,0.2,0.6,0.4,0.6,0.6c0,0.2-0.3,0.3-0.6,0.3c-0.4,0-0.9-0.1-1-0.3h0.9h0.3
			C-370.6,277.1-371.1,276.6-371.6,276z"/>
		<path d="M-364.1,276.1l-1.1,1.3c0,0.1-0.2,0.4,0.2,0.3c0.4-0.1,0.8-0.2,1.2-0.3c0.1,0,0.1-0.2-0.1-0.2c-0.2,0-0.7,0.1-1,0.1
			L-364.1,276.1C-364.1,276.1-364,276-364.1,276.1z"/>
		<path d="M-367.3,282.2c0.5-0.2,0.8-0.6,1.1-1c0.3-0.6,0-0.9-0.4-1c-0.6-0.1-1.2,0-1.7,0.3c-0.4,0.4-0.3,0.7-0.1,1
			C-368,281.8-367.7,282-367.3,282.2z"/>
		<path class="st2" d="M-367.6,283.5c-0.1,0.2-0.3,0.4-0.5,0.6c-0.3,0.2-0.6,0.4-1,0.4c-0.5,0-1-0.1-1.5-0.4
			c-0.2-0.1-0.4-0.3-0.5-0.4c-0.1-0.1-0.2-0.2-0.4-0.3c0,0,0.8,4.1,2.6,4.8c1.8,0.6,2.1-0.8,2.2-1.1c0.1-1.1-0.2-2.3-0.8-3.2
			C-367.5,283.4-367.5,283.6-367.6,283.5z"/>
		<path d="M-369.3,284.6c-0.5-0.1-0.9-0.2-1.3-0.5s-0.7-0.6-1-1c0,0,0,0,0,0c0,0,0,0,0-0.1c0,0,0,0,0-0.1c0,0,0,0,0,0c0,0,0,0,0,0
			c0,0,0,0,0.1,0c0,0,0,0,0.1,0c0,0,0,0,0,0c0.5,0.7,1.3,1.2,2.1,1.3c0.3,0,0.7-0.1,0.9-0.3c0.3-0.2,0.5-0.4,0.7-0.7l0.1-0.2
			l0.1,0.2c0,0,0.4,0.8,1,0.8c0.6,0,1-0.4,1.6-1.3c0,0,0,0,0,0c0,0,0,0,0.1,0c0,0,0,0,0.1,0c0,0,0,0,0,0c0,0,0.1,0.1,0.1,0.1
			c0,0,0,0.1,0,0.1c-0.6,1-1.3,1.4-1.9,1.4c-0.2,0-0.5-0.1-0.6-0.3c-0.2-0.1-0.4-0.3-0.5-0.5c-0.2,0.3-0.5,0.5-0.7,0.7
			C-368.6,284.5-369,284.6-369.3,284.6z"/>
		<path class="st2" d="M-357.8,280.9c-1.8,1.6-3.5,3.4-5.1,5.2c-1.6,1.8-3.3,3.5-5.3,4.9c-0.2-0.5-1.6-1.5-1.6-1.5s-3.1-2.1-5.2-3.8
			c-1.1-0.9-2.2-1.9-3.1-3l-2-0.1c2.9,4.2,7.1,7.3,12,8.8c0.9-0.1,3.3-1.9,5.1-3.3c2.1-1.8,4.1-3.8,5.9-5.9c0.5-0.6,0.9-1.3,1.1-2
			C-357,280.6-357.8,280.9-357.8,280.9z"/>
	</g>
</g>
<g>
	<defs>
		<rect id="SVGID_3_" x="-294" y="275" width="101" height="18"/>
	</defs>
	<clipPath id="SVGID_4_">
		<use xlink:href="#SVGID_3_"  style="overflow:visible;"/>
	</clipPath>
	<g class="st3">
		<path class="st4" d="M-292.7,291.5c-0.9-1.3-1.3-2.8-1.3-4.3v-6.4c-0.1-1.5,0.3-3.1,1.2-4.4c0.9-1,2.2-1.5,4.2-1.5
			c2,0,3.2,0.5,4,1.3c0.9,1.1,1.3,2.4,1.2,3.8v1.5h-3.9v-1.8c0-0.5,0-1-0.2-1.5c-0.1-0.2-0.3-0.4-0.5-0.5c-0.2-0.1-0.4-0.2-0.6-0.1
			c-0.6,0-0.9,0.2-1.1,0.5c-0.2,0.5-0.3,1.1-0.2,1.7v8.2c0,0.6,0.1,1.1,0.3,1.6c0.2,0.4,0.6,0.5,1.1,0.5s0.9-0.2,1-0.5
			c0.2-0.5,0.3-1.1,0.2-1.6v-1.8h3.9v1.5c0.1,1.4-0.3,2.7-1.2,3.8c-0.8,0.9-2.1,1.4-4,1.4C-290.5,293-291.9,292.5-292.7,291.5z"/>
		<path class="st4" d="M-278.7,275.2h4.5l3.3,17.5h-3.6l-0.6-3.7h-2.6l-0.6,3.7h-3.7L-278.7,275.2z M-275.5,286.8l-0.9-6.8l-0.9,6.8
			H-275.5z"/>
		<path class="st4" d="M-268.2,278.2h-2.7v-2.9h9.4v2.8h-2.7v14.7h-4V278.2z"/>
		<path class="st4" d="M-254.2,275.2h7v1.8h-4.5v5.8h3.6v1.8h-3.6v6.5h4.5v1.8h-7L-254.2,275.2L-254.2,275.2z"/>
		<path class="st4" d="M-245.2,275.2h1.7l5.1,11.6v-11.6h2.1v17.5h-1.6l-5.2-12v12h-2.1V275.2z"/>
		<path class="st4" d="M-233.9,275.2h7v1.8h-4.5v5.8h3.6v1.8h-3.6v6.5h4.5v1.8h-7V275.2z"/>
		<path class="st4" d="M-224.9,275.2h3.6c1.4-0.1,2.9,0.3,4,1.1c0.9,0.7,1.3,1.9,1.3,3.5c0,2.2-0.7,3.6-2.2,4.1l2.5,8.8h-2.4
			l-2.4-8.2h-2v8.2h-2.5L-224.9,275.2L-224.9,275.2z M-221.5,282.8c0.8,0.1,1.6-0.2,2.3-0.6c0.5-0.4,0.7-1.2,0.7-2.3
			c0-0.6-0.1-1.1-0.2-1.7c-0.2-0.4-0.5-0.7-0.9-0.9c-0.5-0.2-1.1-0.3-1.7-0.3h-1.1v5.8L-221.5,282.8L-221.5,282.8z"/>
		<path class="st4" d="M-212.8,291.5c-0.8-1.3-1.2-2.9-1.1-4.5v-5.8c0-1.1,0.1-2.2,0.4-3.3c0.3-0.8,0.8-1.5,1.5-2
			c0.9-0.5,1.9-0.7,2.9-0.7c1.7,0,2.8,0.4,3.6,1.2c0.8,1.1,1.2,2.5,1.1,3.8v0.6h-2.4v-0.5c0-0.6-0.1-1.3-0.2-1.9
			c-0.1-0.4-0.3-0.8-0.6-1c-0.4-0.3-1-0.4-1.5-0.4c-0.6,0-1.1,0.1-1.6,0.5c-0.2,0.2-0.3,0.3-0.4,0.6c-0.1,0.2-0.2,0.4-0.2,0.7
			c-0.1,0.7-0.2,1.4-0.2,2.1v6.5c-0.1,1,0.1,2,0.5,2.9c0.3,0.6,0.9,0.8,1.9,0.8c0.4,0,0.8,0,1.1-0.2c0.3-0.2,0.6-0.4,0.8-0.7
			c0.4-1,0.6-2,0.6-3.1v-1.2h-2.3v-1.8h4.6v8.7h-1.6l-0.2-2c-0.2,0.7-0.6,1.3-1.2,1.7c-0.6,0.4-1.3,0.6-2,0.6
			c-0.7,0-1.3-0.1-1.9-0.4C-211.9,292.4-212.4,292-212.8,291.5z"/>
		<path class="st4" d="M-199.3,286.6l-3.9-11.3h2.4l2.8,8.5l2.7-8.5h2.4l-3.9,11.3v6.2h-2.4L-199.3,286.6L-199.3,286.6z"/>
	</g>
</g>
</svg>
