<?xml version="1.0" encoding="utf-8"?><svg version="1.1" id="Layer_1" xmlns="http://www.w3.org/2000/svg" x="0" y="0" viewBox="-430 236.4 191 37.6" xml:space="preserve"><style>.st0{fill:#f06351}.st1{fill:#fdc305}.st2{fill:#111}</style><path class="st0" d="M-403.8 255.3c-1.8 1.6-3.5 3.4-5.1 5.2-1.6 1.8-3.3 3.5-5.3 4.9-.2-.5-1.6-1.5-1.6-1.5s-3.1-2.1-5.2-3.8c-1.1-.9-2-1.9-2.9-3l-2.2-.2c2.9 4.2 7.1 7.4 12 8.9.9-.1 3.3-1.9 5.1-3.3 2.1-1.8 4.1-3.8 5.9-5.9.5-.6.9-1.4 1.1-2.1-1 .4-1.8.8-1.8.8z"/><path class="st1" d="M-423.9 257.1v-2.4c6.7-.9 13.4-1.3 20.2-1.2 0 .6 0 1.2-.1 1.8 1.9-.9 3.9-1.5 6-1.8-1.3-3.4-3.7-6.3-6.8-8.2-3.1-1.9-6.8-2.7-10.4-2.4-3.6.4-7 1.9-9.7 4.4s-4.4 5.8-5 9.4l5.8.4zM-402.8 260.6c-1.2 1.3-1.4 1.2-1.4 3.4v9.2c2.3-1.5 4.2-3.6 5.5-6s2-5.1 2-7.9c0-1-.1-2.1-.3-3.1-2.1 1.3-4 2.8-5.8 4.4zM-423.6 262.1s-3.8-1.4-5.2-1.8l-1.2-.3c.1 2.9 1 5.7 2.5 8.1 1.5 2.5 3.7 4.5 6.2 5.9l-2.3-11.9z"/><path class="st0" d="M-403.7 253.5c0-5.5-.4-11-1.4-16.5 0 0-.1-.6-.4-.6-.1 0-.3.1-.5.4-.6 1.2-1 2.6-1.2 3.9-4.3-.3-8.5-.2-12.8.3-.8-2.7-2.2-3.9-2.9-3.7-.7.3-.7 3.3-.7 3.3l-.3 14.1c6.7-.8 13.4-1.2 20.2-1.2z"/><path d="M-417.6 250.4c0-.1 1 .7 1.4.9.4.2.6.4.6.6s-.3.3-.6.3c-.4 0-.9-.1-1-.3h1.2c-.6-.4-1.1-.9-1.6-1.5zM-410.1 250.5l-1.1 1.3c-.1.1-.2.4.2.3l1.2-.3c.1 0 .1-.2-.1-.2s-.7.1-1 .1l.8-1.2zM-413.3 256.6c.5-.2.8-.6 1.1-1 .3-.6 0-.9-.4-1-.6-.1-1.2 0-1.7.3-.4.4-.3.7-.1 1 .4.3.7.5 1.1.7z"/><path class="st0" d="M-413.6 257.8c-.2.1-.4.4-.6.6-.3.2-.6.5-.9.5-.5.1-1-.1-1.5-.4-.2-.1-.4-.3-.5-.4s-.3-.4-.5-.5c0 0 .9 4.4 2.7 5.1 1.8.6 2.1-.8 2.2-1.1.1-1.1 0-2.2-.6-3.1-.2-.5-.3-.6-.3-.7z"/><path d="M-415.3 259c-.5 0-.9-.2-1.3-.5s-.7-.6-1-1c0 0-.1-.1 0-.2s.2 0 .2 0c.5.7 1.3 1.2 2.1 1.3.3 0 .7-.1.9-.3.3-.2.5-.4.7-.7l.1-.2.1.2s.4.8 1 .8 1-.4 1.6-1.3h.2l.1.1v.1c-.6 1-1.3 1.4-1.9 1.4-.2 0-.4-.1-.6-.2-.2-.2-.4-.4-.5-.6-.2.3-.4.5-.7.7-.4.3-.7.4-1 .4z"/><path class="st2" d="M-338.7 264c-.9-1.3-1.3-2.8-1.3-4.3v-6.4c0-1.5.3-3.1 1.2-4.4.9-1 2.2-1.5 4.2-1.5s3.2.5 4 1.3c.9 1.1 1.1 2.3 1.2 3.8v1.5h-3.9v-1.8c0-.5 0-1-.2-1.5-.1-.2-.3-.4-.5-.5s-.5-.2-.6-.2c-.6 0-.9.3-1.1.6-.2.5-.2 1.1-.2 1.7v8.2c0 .6 0 1.1.3 1.6.2.4.6.5 1.1.5s.9-.2 1-.5c.2-.5.2-1.1.2-1.6v-1.8h3.9v1.5c0 1.4-.3 2.7-1.2 3.8-.8.9-2.1 1.4-4 1.4s-3.3-.4-4.1-1.4zM-324.7 247.8h4.5l3.3 17.5h-3.6l-.6-3.7h-2.6l-.6 3.7h-3.7l3.3-17.5zm3.2 11.6l-.9-6.8-.9 6.8h1.8zM-314.2 250.7h-2.7v-2.9h9.4v2.8h-2.7v14.7h-4v-14.6zM-300.2 247.6h7v1.8h-4.5v5.8h3.6v1.8h-3.6v6.5h4.5v1.8h-7v-17.7zM-291.2 247.8h1.7l5.1 11.6v-11.6h2.1v17.5h-1.6l-5.2-12v12h-2.1v-17.5zM-279.9 247.6h7v1.8h-4.5v5.8h3.6v1.8h-3.6v6.5h4.5v1.8h-7v-17.7zM-271.1 247.6h3.7c2.1 0 3.1.3 4.1 1.2.9.7 1.3 2 1.3 3.6 0 2.2-.7 3.6-2.2 4.1l2.5 8.8h-2.4l-2.4-8.2h-2v8.2h-2.5l-.1-17.7zm3.5 7.8c.7 0 1.3-.1 1.9-.4.4-.2.7-.4.9-.8.2-.4.2-1 .3-1.7 0-.6 0-1.1-.2-1.7-.1-.5-.7-.9-.9-1-.4-.2-1-.2-1.7-.2h-1.2v5.8h.9zM-258.9 264c-.8-1.3-1.1-2.9-1.1-4.5v-5.9c0-1.1.1-2.2.4-3.3.3-.8.8-1.5 1.5-2 .9-.5 1.9-.7 2.9-.7 1.7 0 2.8.4 3.6 1.2.9 1.1 1.2 2.5 1.1 3.8v.6h-2.4v-.5c0-.6-.1-1.3-.2-1.9-.1-.4-.3-.8-.6-1-.4-.3-1-.4-1.5-.4-.6 0-1.1.1-1.6.5-.2.2-.3.3-.4.6-.1.2-.1.4-.2.7-.1.7-.2 1.4-.2 2.1v6.6c0 1 .1 2 .5 2.9.3.6.9.8 1.9.8.4 0 .8 0 1.1-.2.3-.2.6-.4.8-.7.5-.9.6-2 .6-3.1v-1.2h-2.3v-1.8h4.6v8.8h-1.6l-.2-2c-.2.7-.6 1.3-1.2 1.7-.6.4-1.3.6-2 .6s-1.3-.1-1.9-.4c-.7-.4-1.2-.8-1.6-1.3zM-245.3 259.1l-3.9-11.3h2.4l2.8 8.5 2.7-8.5h2.4l-3.9 11.3v6.2h-2.4l-.1-6.2z"/></svg>