<?xml version="1.0" encoding="utf-8"?>
<!-- Generator: Adobe Illustrator 19.1.0, SVG Export Plug-In . SVG Version: 6.00 Build 0)  -->
<svg version="1.1" id="Layer_1" xmlns="http://www.w3.org/2000/svg" xmlns:xlink="http://www.w3.org/1999/xlink" x="0px" y="0px"
	 viewBox="-430 236.4 191 37.6" style="enable-background:new -430 236.4 191 37.6;" xml:space="preserve">
<style type="text/css">
	.st0{fill:#F06351;}
	.st1{fill:#FDC305;}
	.st2{fill:#111111;}
</style>
<path class="st0" d="M-403.8,255.3c-1.8,1.6-3.5,3.4-5.1,5.2c-1.6,1.8-3.3,3.5-5.3,4.9c-0.2-0.5-1.6-1.5-1.6-1.5s-3.1-2.1-5.2-3.8
	c-1.1-0.9-2-1.9-2.9-3l-2.2-0.2c2.9,4.2,7.1,7.4,12,8.9c0.9-0.1,3.3-1.9,5.1-3.3c2.1-1.8,4.1-3.8,5.9-5.9c0.5-0.6,0.9-1.4,1.1-2.1
	C-403,254.9-403.8,255.3-403.8,255.3z"/>
<path class="st1" d="M-423.9,257.1v-2.4c6.7-0.9,13.4-1.3,20.2-1.2c0,0.6,0,1.2-0.1,1.8c1.9-0.9,3.9-1.5,6-1.8
	c-1.3-3.4-3.7-6.3-6.8-8.2c-3.1-1.9-6.8-2.7-10.4-2.4c-3.6,0.4-7,1.9-9.7,4.4s-4.4,5.8-5,9.4L-423.9,257.1z"/>
<path class="st1" d="M-402.8,260.6c-1.2,1.3-1.4,1.2-1.4,3.4c0,0.9,0,4.9,0,9.2c2.3-1.5,4.2-3.6,5.5-6s2-5.1,2-7.9
	c0-1-0.1-2.1-0.3-3.1C-399.1,257.5-401,259-402.8,260.6z"/>
<path class="st1" d="M-423.6,262.1c0,0-3.8-1.4-5.2-1.8c-0.4-0.1-0.8-0.2-1.2-0.3c0.1,2.9,1,5.7,2.5,8.1c1.5,2.5,3.7,4.5,6.2,5.9
	L-423.6,262.1z"/>
<path class="st0" d="M-403.7,253.5c0-5.5-0.4-11-1.4-16.5c0,0-0.1-0.6-0.4-0.6c-0.1,0-0.3,0.1-0.5,0.4c-0.6,1.2-1,2.6-1.2,3.9
	c-4.3-0.3-8.5-0.2-12.8,0.3c-0.8-2.7-2.2-3.9-2.9-3.7c-0.7,0.3-0.7,3.3-0.7,3.3l-0.3,14.1C-417.2,253.9-410.5,253.5-403.7,253.5z"/>
<path d="M-417.6,250.4c0-0.1,1,0.7,1.4,0.9c0.4,0.2,0.6,0.4,0.6,0.6s-0.3,0.3-0.6,0.3c-0.4,0-0.9-0.1-1-0.3c0,0,0.4,0,0.7,0
	c0.3,0,0.5,0,0.5,0C-416.6,251.5-417.1,251-417.6,250.4z"/>
<path d="M-410.1,250.5l-1.1,1.3c-0.1,0.1-0.2,0.4,0.2,0.3c0.4-0.1,0.8-0.2,1.2-0.3c0.1,0,0.1-0.2-0.1-0.2s-0.7,0.1-1,0.1
	L-410.1,250.5L-410.1,250.5z"/>
<path d="M-413.3,256.6c0.5-0.2,0.8-0.6,1.1-1c0.3-0.6,0-0.9-0.4-1c-0.6-0.1-1.2,0-1.7,0.3c-0.4,0.4-0.3,0.7-0.1,1
	C-414,256.2-413.7,256.4-413.3,256.6z"/>
<path class="st0" d="M-413.6,257.8c-0.2,0.1-0.4,0.4-0.6,0.6c-0.3,0.2-0.6,0.5-0.9,0.5c-0.5,0.1-1-0.1-1.5-0.4
	c-0.2-0.1-0.4-0.3-0.5-0.4s-0.3-0.4-0.5-0.5c0,0,0.9,4.4,2.7,5.1c1.8,0.6,2.1-0.8,2.2-1.1c0.1-1.1,0-2.2-0.6-3.1
	C-413.5,258-413.6,257.9-413.6,257.8z"/>
<path d="M-415.3,259c-0.5,0-0.9-0.2-1.3-0.5s-0.7-0.6-1-1l0,0c0,0-0.1-0.1,0-0.2s0.2,0,0.2,0c0.5,0.7,1.3,1.2,2.1,1.3
	c0.3,0,0.7-0.1,0.9-0.3c0.3-0.2,0.5-0.4,0.7-0.7l0.1-0.2l0.1,0.2c0,0,0.4,0.8,1,0.8s1-0.4,1.6-1.3l0,0c0,0,0,0,0.1,0
	c0,0,0.1,0,0.1,0c0,0,0,0,0,0s0.1,0.1,0.1,0.1s0,0.1,0,0.1c-0.6,1-1.3,1.4-1.9,1.4c-0.2,0-0.4-0.1-0.6-0.2c-0.2-0.2-0.4-0.4-0.5-0.6
	c-0.2,0.3-0.4,0.5-0.7,0.7C-414.7,258.9-415,259-415.3,259z"/>
<path class="st2" d="M-338.7,264c-0.9-1.3-1.3-2.8-1.3-4.3v-6.4c0-1.5,0.3-3.1,1.2-4.4c0.9-1,2.2-1.5,4.2-1.5s3.2,0.5,4,1.3
	c0.9,1.1,1.1,2.3,1.2,3.8v1.5h-3.9v-1.8c0-0.5,0-1-0.2-1.5c-0.1-0.2-0.3-0.4-0.5-0.5s-0.5-0.2-0.6-0.2c-0.6,0-0.9,0.3-1.1,0.6
	c-0.2,0.5-0.2,1.1-0.2,1.7v8.2c0,0.6,0,1.1,0.3,1.6c0.2,0.4,0.6,0.5,1.1,0.5s0.9-0.2,1-0.5c0.2-0.5,0.2-1.1,0.2-1.6v-1.8h3.9v1.5
	c0,1.4-0.3,2.7-1.2,3.8c-0.8,0.9-2.1,1.4-4,1.4C-336.5,265.4-337.9,265-338.7,264z"/>
<path class="st2" d="M-324.7,247.8h4.5l3.3,17.5h-3.6l-0.6-3.7h-2.6l-0.6,3.7h-3.7L-324.7,247.8z M-321.5,259.4l-0.9-6.8l-0.9,6.8
	H-321.5z"/>
<path class="st2" d="M-314.2,250.7h-2.7v-2.9h9.4v2.8h-2.7v14.7h-4L-314.2,250.7L-314.2,250.7z"/>
<path class="st2" d="M-300.2,247.6h7v1.8h-4.5v5.8h3.6v1.8h-3.6v6.5h4.5v1.8h-7V247.6L-300.2,247.6z"/>
<path class="st2" d="M-291.2,247.8h1.7l5.1,11.6v-11.6h2.1v17.5h-1.6l-5.2-12v12h-2.1V247.8z"/>
<path class="st2" d="M-279.9,247.6h7v1.8h-4.5v5.8h3.6v1.8h-3.6v6.5h4.5v1.8h-7V247.6z"/>
<path class="st2" d="M-271.1,247.6l3.7,0c2.1,0,3.1,0.3,4.1,1.2c0.9,0.7,1.3,2,1.3,3.6c0,2.2-0.7,3.6-2.2,4.1l2.5,8.8h-2.4l-2.4-8.2
	h-2v8.2h-2.5L-271.1,247.6z M-267.6,255.4c0.7,0,1.3-0.1,1.9-0.4c0.4-0.2,0.7-0.4,0.9-0.8c0.2-0.4,0.2-1,0.3-1.7
	c0-0.6,0-1.1-0.2-1.7c-0.1-0.5-0.7-0.9-0.9-1c-0.4-0.2-1-0.2-1.7-0.2h-1.2v5.8H-267.6L-267.6,255.4z"/>
<path class="st2" d="M-258.9,264c-0.8-1.3-1.1-2.9-1.1-4.5v-5.9c0-1.1,0.1-2.2,0.4-3.3c0.3-0.8,0.8-1.5,1.5-2
	c0.9-0.5,1.9-0.7,2.9-0.7c1.7,0,2.8,0.4,3.6,1.2c0.9,1.1,1.2,2.5,1.1,3.8v0.6h-2.4v-0.5c0-0.6-0.1-1.3-0.2-1.9
	c-0.1-0.4-0.3-0.8-0.6-1c-0.4-0.3-1-0.4-1.5-0.4c-0.6,0-1.1,0.1-1.6,0.5c-0.2,0.2-0.3,0.3-0.4,0.6c-0.1,0.2-0.1,0.4-0.2,0.7
	c-0.1,0.7-0.2,1.4-0.2,2.1v6.6c0,1,0.1,2,0.5,2.9c0.3,0.6,0.9,0.8,1.9,0.8c0.4,0,0.8,0,1.1-0.2c0.3-0.2,0.6-0.4,0.8-0.7
	c0.5-0.9,0.6-2,0.6-3.1v-1.2h-2.3v-1.8h4.6v8.8h-1.6l-0.2-2c-0.2,0.7-0.6,1.3-1.2,1.7c-0.6,0.4-1.3,0.6-2,0.6s-1.3-0.1-1.9-0.4
	C-258,264.9-258.5,264.5-258.9,264z"/>
<path class="st2" d="M-245.3,259.1l-3.9-11.3h2.4l2.8,8.5l2.7-8.5h2.4l-3.9,11.3v6.2h-2.4L-245.3,259.1L-245.3,259.1z"/>
</svg>
